<?xml version="1.0" standalone="no"?>
<!DOCTYPE svg PUBLIC "-//W3C//DTD SVG 20010904//EN"
 "http://www.w3.org/TR/2001/REC-SVG-20010904/DTD/svg10.dtd">
<svg version="1.0" xmlns="http://www.w3.org/2000/svg"
 width="1320.000000pt" height="1000.000000pt" viewBox="0 0 1320.000000 1000.000000"
 preserveAspectRatio="xMidYMid meet">
<metadata>
Created by potrace 1.16, written by Peter Selinger 2001-2019
</metadata>
<g transform="translate(0.000000,1000.000000) scale(0.100000,-0.100000)"
fill="#000000" stroke="none">
<path d="M2790 5851 c-76 -23 -140 -72 -140 -107 0 -54 142 -124 252 -124 117
0 208 53 208 121 0 78 -73 119 -207 118 -49 0 -99 -4 -113 -8z"/>
<path d="M3120 5832 c0 -4 7 -16 15 -26 23 -30 19 -97 -8 -137 -30 -44 -99
-90 -173 -115 -89 -29 -241 -27 -311 5 -89 40 -151 129 -141 201 l4 29 -35
-19 c-102 -52 -161 -117 -161 -177 0 -90 203 -199 444 -238 354 -58 696 66
696 252 0 35 -5 44 -42 74 -46 37 -110 79 -157 103 -50 26 -131 56 -131 48z"/>
<path d="M3482 5555 c-34 -128 -228 -241 -490 -285 -302 -52 -594 6 -738 145
-28 28 -57 67 -65 88 -7 20 -17 36 -23 34 -5 -2 -31 -40 -59 -85 -64 -107 -61
-129 27 -217 105 -106 308 -191 541 -226 119 -18 361 -15 479 6 230 40 425
135 499 243 l28 40 -36 78 c-28 62 -136 224 -148 224 -2 0 -8 -20 -15 -45z"/>
<path d="M6225 5410 c-66 -26 -121 -53 -123 -58 -2 -6 13 -15 33 -22 19 -6 40
-20 45 -30 6 -11 10 -165 10 -395 0 -411 -1 -408 57 -367 26 18 31 18 68 5 55
-20 180 -20 227 0 58 25 128 96 159 162 69 143 14 311 -117 361 -55 21 -140
14 -190 -15 -19 -12 -38 -21 -41 -21 -3 0 -2 97 2 215 4 118 3 215 -2 214 -4
0 -62 -22 -128 -49z m284 -451 c40 -39 55 -94 55 -204 1 -76 -2 -95 -21 -126
-38 -60 -114 -79 -153 -37 -32 34 -40 82 -40 235 0 162 0 162 82 163 39 0 52
-5 77 -31z"/>
<path d="M10325 5440 c-16 -11 -52 -27 -78 -36 -43 -14 -48 -19 -43 -40 4 -16
-20 -94 -78 -246 -189 -496 -206 -528 -283 -528 -29 0 -33 -3 -33 -25 l0 -25
160 0 160 0 0 25 c0 23 -4 25 -45 25 -40 0 -47 3 -55 26 -11 29 -5 59 36 187
l26 78 141 -3 141 -3 39 -128 c21 -71 36 -135 33 -143 -3 -8 -19 -14 -41 -14
-31 0 -35 -3 -35 -25 l0 -25 200 0 200 0 0 25 c0 22 -4 25 -38 25 -46 0 -71
23 -100 90 -10 25 -74 210 -141 413 -68 202 -126 367 -129 367 -4 0 -20 -9
-37 -20z m-61 -167 c3 -10 24 -85 46 -167 23 -82 44 -155 47 -163 4 -10 -20
-13 -121 -13 -69 0 -126 1 -126 3 0 3 71 200 125 345 6 18 23 15 29 -5z"/>
<path d="M4230 5403 c0 -18 6 -23 25 -23 14 0 33 -8 43 -18 10 -10 82 -201
162 -426 84 -240 150 -410 158 -414 8 -3 20 2 27 11 6 9 65 158 130 331 65
174 121 314 124 310 3 -3 57 -150 121 -327 99 -276 118 -322 136 -325 17 -2
25 6 37 36 20 51 114 301 213 567 42 116 86 220 97 233 11 12 31 22 44 22 17
0 23 6 23 23 0 22 -2 22 -130 22 -127 0 -130 0 -130 -22 0 -17 7 -22 31 -25
46 -4 56 -26 41 -94 -14 -70 -154 -494 -162 -494 -3 0 -46 124 -95 276 -95
293 -97 306 -41 312 19 3 26 9 26 25 0 22 -2 22 -170 22 -167 0 -170 0 -170
-21 0 -16 8 -23 30 -27 39 -8 64 -56 57 -111 -4 -38 -149 -461 -162 -474 -3
-3 -6 -3 -8 -1 -2 2 -43 129 -91 282 -92 295 -94 307 -39 307 19 0 24 5 21 21
-3 21 -8 22 -176 23 l-172 1 0 -22z"/>
<path d="M6780 5403 c0 -19 5 -23 29 -23 36 0 84 -38 101 -80 9 -23 11 -104 8
-333 -5 -351 -10 -377 -72 -377 -32 0 -36 -3 -36 -25 l0 -25 145 0 145 0 0 25
c0 22 -5 25 -32 25 -39 0 -51 7 -67 38 -23 43 -43 622 -22 622 6 0 41 -39 78
-87 78 -101 287 -353 382 -463 116 -134 154 -170 178 -170 23 0 23 2 23 108 0
142 18 526 30 631 10 91 20 111 56 111 18 0 24 5 24 23 0 22 -1 22 -140 22
-139 0 -140 0 -140 -22 0 -20 5 -23 35 -23 54 0 72 -25 79 -112 11 -151 16
-480 7 -476 -5 1 -51 55 -102 118 -156 194 -391 484 -404 498 -9 10 -52 14
-159 16 l-146 3 0 -24z"/>
<path d="M10814 5421 c-2 -2 -4 -13 -4 -23 0 -15 8 -18 44 -18 27 0 48 -6 56
-15 10 -12 13 -99 13 -373 0 -196 -3 -367 -7 -379 -6 -19 -15 -23 -52 -23 -40
0 -44 -2 -44 -25 l0 -25 201 0 200 0 -3 23 c-2 18 -10 23 -46 25 -35 3 -45 8
-52 28 -6 14 -10 179 -10 379 0 393 -1 385 66 385 29 0 34 4 34 23 l0 22 -196
0 c-108 0 -198 -2 -200 -4z"/>
<path d="M3666 5194 c-39 -50 -138 -121 -221 -160 -322 -150 -770 -173 -1113
-58 -102 34 -220 97 -282 152 -62 54 -63 52 -64 -106 l-1 -114 62 -57 c297
-274 1096 -331 1523 -110 42 21 90 51 108 67 30 25 33 33 42 120 9 90 0 234
-18 281 -7 19 -9 18 -36 -15z"/>
<path d="M5780 5071 c-108 -33 -179 -128 -188 -251 -5 -80 8 -133 51 -196 54
-82 147 -115 259 -94 77 15 162 77 184 134 11 28 -24 30 -56 2 -39 -32 -99
-49 -146 -40 -73 13 -133 96 -134 182 l0 42 160 0 160 0 0 38 c-1 75 -50 146
-122 177 -39 16 -125 19 -168 6z m115 -71 c8 -16 15 -45 15 -65 l0 -35 -81 0
c-79 0 -81 1 -75 23 3 12 6 27 6 34 0 6 12 25 26 42 36 43 87 44 109 1z"/>
<path d="M8005 5060 c-61 -24 -125 -85 -156 -148 -27 -54 -31 -152 -9 -216 16
-49 81 -121 135 -149 60 -31 191 -29 259 3 142 68 206 243 138 376 -23 45 -83
104 -134 130 -51 27 -171 29 -233 4z m153 -53 c35 -38 52 -102 52 -201 0 -159
-43 -246 -114 -232 -72 15 -101 93 -94 255 5 106 17 148 53 185 24 24 78 20
103 -7z"/>
<path d="M9232 5059 c-84 -27 -152 -90 -152 -140 0 -19 5 -40 12 -47 20 -20
67 -14 94 13 22 22 24 31 19 69 -6 38 -4 46 13 55 12 6 38 11 60 11 57 0 74
-23 70 -96 l-3 -59 -92 -45 c-137 -67 -184 -124 -169 -205 20 -102 123 -122
237 -45 l44 29 23 -29 c47 -61 145 -60 196 1 43 51 31 76 -20 43 -44 -29 -49
-11 -54 201 l-5 195 -32 32 c-30 30 -39 33 -105 35 -52 2 -91 -3 -136 -18z
m118 -333 c0 -87 -2 -96 -22 -110 -31 -22 -54 -20 -72 6 -19 27 -20 94 -3 126
12 21 74 70 90 72 4 0 7 -42 7 -94z"/>
<path d="M8420 5043 c0 -17 6 -23 23 -23 35 0 51 -23 108 -155 79 -186 144
-319 162 -333 9 -8 21 -10 28 -7 6 4 40 69 76 144 156 330 169 351 225 351 22
0 28 5 28 23 0 22 -2 22 -120 22 -118 0 -120 0 -120 -22 0 -16 6 -23 19 -23
28 0 44 -25 36 -57 -14 -56 -98 -244 -106 -236 -16 17 -100 245 -97 266 2 14
11 23 26 25 15 2 22 10 22 25 0 22 -2 22 -155 22 -154 0 -155 0 -155 -22z"/>
<path d="M3614 4701 c-194 -118 -489 -185 -814 -185 -282 1 -480 40 -707 140
-13 6 -3 -48 15 -82 19 -36 89 -92 159 -128 298 -149 808 -174 1140 -54 100
36 128 61 194 169 37 62 84 168 77 174 -2 2 -30 -14 -64 -34z"/>
<path d="M3315 4299 c-254 -82 -669 -98 -900 -33 -45 13 44 -38 118 -66 128
-50 213 -63 362 -57 152 6 217 22 340 82 73 35 167 96 145 94 -3 -1 -32 -10
-65 -20z"/>
</g>
</svg>
