<svg version="1.1" id="Layer_1" xmlns="http://www.w3.org/2000/svg" xmlns:xlink="http://www.w3.org/1999/xlink" x="0px" y="0px"
	 width="100%" viewBox="0 0 1320 1000" enable-background="new 0 0 1320 1000" xml:space="preserve">
<path fill="#EFF0F4" opacity="1.000000" stroke="none" 
	d="
M1242.000000,1001.000000 
	C828.000000,1001.000000 414.500000,1001.000000 1.000000,1001.000000 
	C1.000000,667.666687 1.000000,334.333344 1.000000,1.000000 
	C441.000000,1.000000 881.000000,1.000000 1321.000000,1.000000 
	C1321.000000,334.333344 1321.000000,667.666687 1321.000000,1001.000000 
	C1294.833374,1001.000000 1268.666626,1001.000000 1242.000000,1001.000000 
M322.212250,577.997864 
	C326.000977,577.827087 324.514191,574.872803 324.492981,573.127747 
	C324.356598,561.914734 325.961334,551.126221 332.917389,541.969299 
	C337.127258,536.427429 342.782806,531.906006 346.549164,526.119263 
	C359.145996,506.765320 360.454956,486.370392 348.529846,466.398529 
	C336.867340,446.866516 319.021027,437.915680 296.115509,439.853210 
	C269.247101,442.125854 248.888977,463.583282 246.373856,490.519928 
	C245.898575,495.610077 245.120728,500.773041 243.636505,505.644684 
	C241.283005,513.369690 238.216202,520.877380 235.200378,529.166321 
	C240.210464,529.166321 244.661453,529.256531 249.107025,529.139893 
	C253.231323,529.031616 255.278625,530.549072 255.056259,535.005798 
	C254.799194,540.157776 254.976746,545.332703 255.007202,550.497375 
	C255.036469,555.459412 257.192474,559.243652 261.887878,560.951965 
	C264.158905,561.778259 266.792938,561.658630 269.271576,561.851990 
	C275.213623,562.315369 277.968445,565.105042 278.143219,571.029724 
	C278.209656,573.281677 278.153992,575.537292 278.153992,577.695068 
	C281.848022,577.695068 284.773071,577.695068 288.003632,577.695068 
	C288.003632,564.586670 288.022766,551.784119 287.995636,538.981689 
	C287.981934,532.502502 287.105530,531.538452 280.555206,529.969482 
	C279.125702,529.627075 277.227692,529.332520 276.489227,528.324524 
	C271.821899,521.953491 266.659180,515.764404 263.191498,508.757355 
	C260.772858,503.869965 265.000031,497.690796 270.032928,496.115173 
	C275.353668,494.449463 280.921265,496.868042 283.408966,501.925751 
	C285.821960,506.831604 284.317627,513.030090 279.377472,515.731323 
	C275.910492,517.627014 275.698059,519.908752 277.666473,522.417847 
	C278.745941,523.793762 280.966187,524.541199 282.814117,525.001282 
	C290.432129,526.897766 293.089386,530.057983 293.146942,537.915710 
	C293.190887,543.913330 293.155884,549.911499 293.155914,555.909424 
	C293.155975,563.186951 293.155914,570.464478 293.155914,578.072754 
	C295.392609,577.923340 296.965912,577.818237 298.844086,577.692688 
	C298.844086,575.505615 298.844086,573.693237 298.844086,571.880859 
	C298.844086,546.722839 298.798462,521.564636 298.896698,496.407043 
	C298.910339,492.912231 298.601410,490.337189 295.013916,488.281189 
	C290.973175,485.965363 289.614166,479.556152 291.264618,475.325684 
	C292.853058,471.254120 297.789154,468.326416 302.519409,468.650146 
	C306.955414,468.953796 311.083923,472.505432 312.030060,476.832001 
	C313.166656,482.029480 311.419861,486.708801 306.795502,488.960907 
	C304.082703,490.282043 303.968323,492.129181 303.971893,494.548584 
	C304.010925,521.039429 303.991913,547.530334 304.010132,574.021179 
	C304.011017,575.298035 304.211578,576.574829 304.314636,577.797974 
	C306.282837,577.797974 307.900879,577.797974 310.003815,577.797974 
	C310.003815,564.483704 309.978058,551.364624 310.013397,538.245667 
	C310.034729,530.317871 313.009735,526.957825 320.619904,524.852173 
	C322.842712,524.237122 325.138000,522.330017 326.340942,520.366272 
	C326.806580,519.606201 324.646820,516.692383 323.142944,515.377502 
	C319.250153,511.973938 317.675720,507.521271 319.292694,502.966797 
	C320.953003,498.290253 325.504700,495.344025 330.582031,495.659393 
	C335.493866,495.964478 339.093384,499.086548 340.345367,504.127808 
	C341.480225,508.697235 339.340790,513.151062 335.173004,516.029358 
	C333.763733,517.002625 332.475372,518.805908 332.070648,520.459595 
	C330.697296,526.071228 328.005341,529.152649 322.107971,529.982483 
	C316.938385,530.709900 315.091858,533.548462 315.127838,538.449097 
	C315.218231,550.777527 315.153442,563.106995 315.182922,575.436035 
	C315.184784,576.216370 315.461090,576.996094 315.652985,578.003052 
	C317.663300,578.003052 319.484253,578.003052 322.212250,577.997864 
M479.839752,501.378754 
	C480.380219,499.730652 480.920685,498.082520 481.835724,495.292206 
	C482.812744,497.859222 483.464935,499.290375 483.909363,500.783356 
	C489.694580,520.217651 495.624939,539.611816 501.087555,559.136780 
	C502.407837,563.856018 504.715240,564.739441 509.127014,564.734863 
	C513.379395,564.730408 515.553589,563.901489 516.818848,559.367615 
	C523.698425,534.715454 530.957275,510.169128 538.086060,485.586517 
	C538.709595,483.436340 539.336670,481.287201 540.065308,478.782928 
	C537.363525,478.782928 535.335327,479.022308 533.385132,478.733856 
	C529.117310,478.102661 527.450684,479.855255 526.364441,484.022430 
	C521.459656,502.839050 516.148193,521.549683 510.967896,540.294312 
	C510.477600,542.068420 509.879791,543.812805 509.331879,545.571045 
	C508.991608,545.496704 508.651367,545.422363 508.311096,545.348022 
	C501.762268,523.231201 495.213470,501.114319 488.654877,478.964508 
	C484.025604,478.964508 479.741547,478.964508 475.201202,478.964508 
	C468.596985,501.211121 462.020355,523.364807 455.443726,545.518555 
	C455.061188,545.464722 454.678680,545.410889 454.296143,545.357117 
	C448.159729,523.174500 442.023346,500.991943 435.973297,479.121582 
	C431.674652,479.121582 427.938324,479.121582 423.848114,479.121582 
	C431.981232,506.946136 439.954071,534.369141 448.039734,561.758789 
	C449.625427,567.130249 454.244080,563.708191 457.397614,564.514099 
	C460.170990,565.222961 461.383728,563.721069 462.181885,560.964172 
	C467.866638,541.328552 473.752228,521.751099 479.839752,501.378754 
M756.241943,564.566772 
	C757.835938,564.475891 759.429871,564.385010 761.075684,564.291199 
	C761.075684,535.594177 761.075684,507.371857 761.075684,479.089386 
	C757.204407,479.089386 753.635864,479.089386 749.349731,479.089386 
	C749.349731,501.960541 749.349731,524.534180 749.349731,547.107849 
	C747.226562,545.683594 746.065857,544.106323 744.976624,542.481140 
	C731.544189,522.439392 718.142029,502.377167 704.654724,482.372437 
	C703.712219,480.974487 702.242615,479.103363 700.873596,478.973358 
	C696.346985,478.543457 691.754089,478.811218 687.329529,478.811218 
	C687.329529,507.752594 687.329529,535.974548 687.329529,564.177612 
	C691.251221,564.177612 694.814026,564.177612 698.817749,564.177612 
	C698.817749,541.081665 698.817749,518.370789 698.817749,494.190948 
	C700.552002,496.662872 701.476501,497.942108 702.361694,499.247986 
	C715.526917,518.669556 728.939514,537.931213 741.685303,557.624390 
	C745.243530,563.122192 749.022217,565.699158 756.241943,564.566772 
M1030.088501,530.488098 
	C1025.199951,541.657166 1020.311340,552.826172 1015.172546,564.566956 
	C1018.763245,564.566956 1021.442505,564.318359 1024.055908,564.627197 
	C1027.679565,565.055298 1029.413208,563.576538 1030.524658,560.198730 
	C1032.079712,555.473450 1033.954346,550.822021 1036.125488,546.349182 
	C1036.802368,544.954834 1038.863525,543.383423 1040.322266,543.352356 
	C1051.805298,543.107178 1063.297974,543.109070 1074.781372,543.347595 
	C1076.263062,543.378296 1078.385254,544.873169 1079.047485,546.249573 
	C1081.419800,551.180298 1083.210938,556.387024 1085.411621,561.406311 
	C1085.939453,562.610046 1087.126221,564.289551 1088.135010,564.381897 
	C1091.970337,564.732971 1095.856934,564.523376 1100.216553,564.523376 
	C1088.136719,536.255310 1076.382690,508.943817 1064.849243,481.539490 
	C1063.219971,477.668243 1060.366089,478.980591 1057.793335,478.825104 
	C1055.205200,478.668610 1052.894409,478.400513 1051.425171,481.875458 
	C1044.633057,497.939819 1037.448364,513.838196 1030.088501,530.488098 
M875.876587,564.807800 
	C889.236023,568.679382 902.826477,563.212097 909.237671,551.387085 
	C916.141296,538.653809 913.473206,521.524902 903.109802,512.382751 
	C898.184143,508.037659 892.398987,505.841888 885.819580,505.572845 
	C877.455078,505.230713 870.273682,507.936005 863.530518,514.832092 
	C863.530518,500.115723 863.530518,486.607941 863.530518,473.021484 
	C859.625916,473.021484 856.360291,473.021484 853.047424,473.021484 
	C853.047424,503.615723 853.047424,533.967041 853.047424,564.226440 
	C856.722839,564.226440 859.980164,564.226440 863.267822,564.226440 
	C863.562134,561.901062 863.813782,559.913208 864.028137,558.219360 
	C867.987976,560.454041 871.562927,562.471558 875.876587,564.807800 
M610.069336,540.500000 
	C610.069336,548.408264 610.069336,556.316528 610.069336,564.315674 
	C614.104736,564.315674 617.379639,564.315674 620.793152,564.315674 
	C620.952820,561.865540 621.096741,559.656311 621.258606,557.172852 
	C635.188660,568.671021 651.742065,568.671021 662.278564,557.493347 
	C673.176331,545.932373 673.275391,525.638977 662.490051,514.151306 
	C651.820740,502.787231 635.334595,502.772217 620.953308,514.542297 
	C620.953308,500.443329 620.953308,486.761780 620.953308,473.178497 
	C617.037659,473.178497 613.655212,473.178497 610.069397,473.178497 
	C610.069397,495.547058 610.069397,517.523560 610.069336,540.500000 
M593.148743,555.650818 
	C592.987427,554.729858 593.151489,553.461060 592.606079,552.950806 
	C590.688721,551.157166 588.527466,549.624268 586.215027,547.800171 
	C579.134949,556.176636 570.686584,558.727844 560.736633,553.941833 
	C555.062317,551.212402 551.291382,546.985901 551.225708,539.855042 
	C559.101929,539.855042 566.580750,539.855042 574.059631,539.855042 
	C581.646729,539.855042 589.233765,539.855042 596.832153,539.855042 
	C596.832153,536.777100 597.065979,534.426819 596.792969,532.137024 
	C595.377869,520.266907 590.691162,510.292908 578.317383,506.852905 
	C566.516785,503.572327 555.418030,505.674194 546.834229,515.252625 
	C535.912292,527.439941 536.952148,547.503662 548.857300,558.662476 
	C560.354370,569.438782 580.694031,568.288879 593.148743,555.650818 
M783.065308,518.633179 
	C775.040588,531.581482 776.502930,546.940674 786.721741,557.036804 
	C797.159485,567.349243 812.791199,568.919739 825.184509,560.901123 
	C837.250854,553.094055 842.228699,538.462463 836.954041,525.082703 
	C827.506409,501.117981 797.188171,499.522064 783.065308,518.633179 
M950.478455,505.485016 
	C941.910950,505.959534 933.751282,507.519867 927.204468,513.903198 
	C929.399719,516.340820 931.357300,518.514648 933.483521,520.875671 
	C941.406311,514.696838 949.558655,511.388947 958.570679,517.009888 
	C962.682617,519.574585 964.017029,523.765381 962.777527,528.880554 
	C958.432251,528.880554 954.417664,528.603882 950.459106,528.956848 
	C946.343811,529.323853 942.190918,529.968994 938.216064,531.073975 
	C928.304260,533.829346 922.971497,541.594299 924.051453,551.116943 
	C925.010620,559.574341 932.524475,565.456726 942.532593,566.025391 
	C951.058472,566.509949 957.955017,563.469177 963.709778,556.392273 
	C964.093567,559.671021 964.369385,562.027222 964.637695,564.319092 
	C968.017456,564.319092 970.795105,564.319092 973.613647,564.319092 
	C973.613647,550.459167 973.824951,536.854553 973.513306,523.261902 
	C973.382019,517.533691 970.790649,512.270874 965.480713,509.718750 
	C961.110107,507.618195 956.081665,506.886230 950.478455,505.485016 
M1111.250610,505.499969 
	C1111.250610,525.058350 1111.250610,544.616760 1111.250610,564.247925 
	C1115.586792,564.247925 1119.163330,564.247925 1122.814941,564.247925 
	C1122.814941,535.665527 1122.814941,507.415344 1122.814941,479.169983 
	C1118.892334,479.169983 1115.181763,479.169983 1111.249512,479.169983 
	C1111.249512,487.875397 1111.249512,496.187683 1111.250610,505.499969 
M290.519287,599.141541 
	C286.472778,599.141541 282.426270,599.141541 278.202057,599.141541 
	C278.376099,604.134644 280.879761,606.382751 284.448792,606.454102 
	C295.914978,606.683411 307.393066,606.600525 318.860168,606.348145 
	C322.784271,606.261719 324.500305,603.636658 324.265259,599.126404 
	C322.254669,599.126404 320.391693,599.455322 318.734009,599.013672 
	C317.579926,598.706238 316.707581,597.341187 315.709412,596.448608 
	C316.630463,595.662781 317.445618,594.443420 318.495941,594.186890 
	C320.337463,593.737122 322.323151,593.877686 324.243652,593.771179 
	C324.243652,590.095764 324.243652,586.848938 324.243652,583.590515 
	C308.728088,583.590515 293.563904,583.590515 278.513123,583.590515 
	C278.513123,587.283447 278.513123,590.521790 278.513123,594.017395 
	C288.183441,594.017395 297.486969,593.907043 306.782257,594.133850 
	C308.211639,594.168762 309.603149,595.755615 311.012177,596.624756 
	C309.668213,597.462830 308.360626,598.945496 306.973785,599.023743 
	C301.834351,599.313660 296.668854,599.140625 290.519287,599.141541 
M351.618774,441.181091 
	C356.131165,436.761810 360.748810,432.441010 365.060181,427.833618 
	C365.847687,426.992065 365.387115,424.982544 365.502686,423.512177 
	C364.135254,423.629395 362.277496,423.216003 361.481506,423.951569 
	C356.965698,428.124268 352.446747,432.353394 348.475616,437.027802 
	C346.760468,439.046814 346.685974,441.989075 351.618774,441.181091 
M376.522888,485.047974 
	C374.193420,485.048767 371.790039,484.702148 369.561279,485.176331 
	C368.149445,485.476654 366.997742,486.999939 365.729370,487.974731 
	C366.899963,488.893127 368.031128,490.538300 369.247925,490.604309 
	C374.556427,490.892151 379.899017,490.887543 385.207336,490.593842 
	C386.453278,490.524902 387.613953,488.915680 388.813843,488.015045 
	C387.535400,487.022675 386.371490,485.446869 384.952911,485.168396 
	C382.550293,484.696838 379.986816,485.044678 376.522888,485.047974 
M300.951569,410.556641 
	C300.959198,413.885590 300.753204,417.236877 301.097565,420.530609 
	C301.208649,421.592926 302.767548,422.503845 303.664124,423.484039 
	C304.518646,422.626862 306.081757,421.794861 306.113312,420.908417 
	C306.326172,414.926666 306.320160,408.929321 306.088440,402.948517 
	C306.055634,402.101318 304.397308,400.666534 303.519440,400.687378 
	C302.658081,400.707825 301.285736,402.137360 301.104431,403.125885 
	C300.720093,405.221344 300.964783,407.432159 300.951569,410.556641 
M222.619827,485.047974 
	C220.959885,485.044952 219.199005,484.696259 217.670319,485.142670 
	C216.321747,485.536469 215.232330,486.817749 214.028473,487.707153 
	C215.279114,488.712738 216.478073,490.499176 217.789505,490.585968 
	C222.913101,490.925049 228.084885,490.922638 233.209625,490.593781 
	C234.539627,490.508453 235.764023,488.777344 237.036926,487.802216 
	C235.704010,486.876923 234.450668,485.337585 233.021835,485.152405 
	C229.920898,484.750580 226.730270,485.040771 222.619827,485.047974 
M253.009506,435.663025 
	C249.260757,431.905182 245.617157,428.031128 241.685989,424.474915 
	C240.756409,423.634033 238.860260,423.861633 237.408737,423.597748 
	C237.595428,425.173401 237.204346,427.263214 238.069397,428.235138 
	C241.702728,432.317474 245.595963,436.194366 249.663376,439.846558 
	C250.699463,440.776917 252.724655,440.605682 254.295364,440.940613 
	C254.043854,439.351440 253.792343,437.762268 253.009506,435.663025 
M298.694244,484.634308 
	C302.517853,485.941559 306.030212,485.357300 306.830444,481.091431 
	C307.204102,479.099701 305.678833,475.749146 303.970978,474.678406 
	C302.536957,473.779327 298.884369,474.551514 297.466431,475.900360 
	C294.875732,478.364777 295.425751,481.587677 298.694244,484.634308 
M333.923492,510.423065 
	C335.957214,507.421448 336.216797,504.111328 332.987976,502.303864 
	C331.174103,501.288452 327.144104,501.369629 326.063538,502.629761 
	C324.708832,504.209595 324.363800,508.015778 325.358704,509.945618 
	C327.045288,513.217285 330.413391,513.002747 333.923492,510.423065 
M279.129425,506.490173 
	C278.770203,502.636047 276.356506,500.378265 272.850159,501.240570 
	C270.890350,501.722595 268.310486,504.553497 268.228973,506.422699 
	C268.148651,508.265442 270.518250,511.265625 272.435730,511.912750 
	C275.795685,513.046814 278.556580,511.290741 279.129425,506.490173 
M304.046478,615.164001 
	C304.046478,613.230652 304.046478,611.297302 304.046478,609.323914 
	C301.971649,609.323914 300.538391,609.323914 298.709290,609.323914 
	C298.709290,611.509033 298.453278,613.522095 298.800171,615.425232 
	C299.027557,616.672607 300.126984,617.761047 300.835815,618.920715 
	C301.901306,617.956726 302.966797,616.992737 304.046478,615.164001 
z"/>
<path fill="#0275E4" opacity="1.000000" stroke="none" 
	d="
M321.758728,578.000488 
	C319.484253,578.003052 317.663300,578.003052 315.652985,578.003052 
	C315.461090,576.996094 315.184784,576.216370 315.182922,575.436035 
	C315.153442,563.106995 315.218231,550.777527 315.127838,538.449097 
	C315.091858,533.548462 316.938385,530.709900 322.107971,529.982483 
	C328.005341,529.152649 330.697296,526.071228 332.070648,520.459595 
	C332.475372,518.805908 333.763733,517.002625 335.173004,516.029358 
	C339.340790,513.151062 341.480225,508.697235 340.345367,504.127808 
	C339.093384,499.086548 335.493866,495.964478 330.582031,495.659393 
	C325.504700,495.344025 320.953003,498.290253 319.292694,502.966797 
	C317.675720,507.521271 319.250153,511.973938 323.142944,515.377502 
	C324.646820,516.692383 326.806580,519.606201 326.340942,520.366272 
	C325.138000,522.330017 322.842712,524.237122 320.619904,524.852173 
	C313.009735,526.957825 310.034729,530.317871 310.013397,538.245667 
	C309.978058,551.364624 310.003815,564.483704 310.003815,577.797974 
	C307.900879,577.797974 306.282837,577.797974 304.314636,577.797974 
	C304.211578,576.574829 304.011017,575.298035 304.010132,574.021179 
	C303.991913,547.530334 304.010925,521.039429 303.971893,494.548584 
	C303.968323,492.129181 304.082703,490.282043 306.795502,488.960907 
	C311.419861,486.708801 313.166656,482.029480 312.030060,476.832001 
	C311.083923,472.505432 306.955414,468.953796 302.519409,468.650146 
	C297.789154,468.326416 292.853058,471.254120 291.264618,475.325684 
	C289.614166,479.556152 290.973175,485.965363 295.013916,488.281189 
	C298.601410,490.337189 298.910339,492.912231 298.896698,496.407043 
	C298.798462,521.564636 298.844086,546.722839 298.844086,571.880859 
	C298.844086,573.693237 298.844086,575.505615 298.844086,577.692688 
	C296.965912,577.818237 295.392609,577.923340 293.155914,578.072754 
	C293.155914,570.464478 293.155975,563.186951 293.155914,555.909424 
	C293.155884,549.911499 293.190887,543.913330 293.146942,537.915710 
	C293.089386,530.057983 290.432129,526.897766 282.814117,525.001282 
	C280.966187,524.541199 278.745941,523.793762 277.666473,522.417847 
	C275.698059,519.908752 275.910492,517.627014 279.377472,515.731323 
	C284.317627,513.030090 285.821960,506.831604 283.408966,501.925751 
	C280.921265,496.868042 275.353668,494.449463 270.032928,496.115173 
	C265.000031,497.690796 260.772858,503.869965 263.191498,508.757355 
	C266.659180,515.764404 271.821899,521.953491 276.489227,528.324524 
	C277.227692,529.332520 279.125702,529.627075 280.555206,529.969482 
	C287.105530,531.538452 287.981934,532.502502 287.995636,538.981689 
	C288.022766,551.784119 288.003632,564.586670 288.003632,577.695068 
	C284.773071,577.695068 281.848022,577.695068 278.153992,577.695068 
	C278.153992,575.537292 278.209656,573.281677 278.143219,571.029724 
	C277.968445,565.105042 275.213623,562.315369 269.271576,561.851990 
	C266.792938,561.658630 264.158905,561.778259 261.887878,560.951965 
	C257.192474,559.243652 255.036469,555.459412 255.007202,550.497375 
	C254.976746,545.332703 254.799194,540.157776 255.056259,535.005798 
	C255.278625,530.549072 253.231323,529.031616 249.107025,529.139893 
	C244.661453,529.256531 240.210464,529.166321 235.200378,529.166321 
	C238.216202,520.877380 241.283005,513.369690 243.636505,505.644684 
	C245.120728,500.773041 245.898575,495.610077 246.373856,490.519928 
	C248.888977,463.583282 269.247101,442.125854 296.115509,439.853210 
	C319.021027,437.915680 336.867340,446.866516 348.529846,466.398529 
	C360.454956,486.370392 359.145996,506.765320 346.549164,526.119263 
	C342.782806,531.906006 337.127258,536.427429 332.917389,541.969299 
	C325.961334,551.126221 324.356598,561.914734 324.492981,573.127747 
	C324.514191,574.872803 326.000977,577.827087 321.758728,578.000488 
z"/>
<path fill="#2A5188" opacity="1.000000" stroke="none" 
	d="
M479.706848,501.766907 
	C473.752228,521.751099 467.866638,541.328552 462.181885,560.964172 
	C461.383728,563.721069 460.170990,565.222961 457.397614,564.514099 
	C454.244080,563.708191 449.625427,567.130249 448.039734,561.758789 
	C439.954071,534.369141 431.981232,506.946136 423.848114,479.121582 
	C427.938324,479.121582 431.674652,479.121582 435.973297,479.121582 
	C442.023346,500.991943 448.159729,523.174500 454.296143,545.357117 
	C454.678680,545.410889 455.061188,545.464722 455.443726,545.518555 
	C462.020355,523.364807 468.596985,501.211121 475.201202,478.964508 
	C479.741547,478.964508 484.025604,478.964508 488.654877,478.964508 
	C495.213470,501.114319 501.762268,523.231201 508.311096,545.348022 
	C508.651367,545.422363 508.991608,545.496704 509.331879,545.571045 
	C509.879791,543.812805 510.477600,542.068420 510.967896,540.294312 
	C516.148193,521.549683 521.459656,502.839050 526.364441,484.022430 
	C527.450684,479.855255 529.117310,478.102661 533.385132,478.733856 
	C535.335327,479.022308 537.363525,478.782928 540.065308,478.782928 
	C539.336670,481.287201 538.709595,483.436340 538.086060,485.586517 
	C530.957275,510.169128 523.698425,534.715454 516.818848,559.367615 
	C515.553589,563.901489 513.379395,564.730408 509.127014,564.734863 
	C504.715240,564.739441 502.407837,563.856018 501.087555,559.136780 
	C495.624939,539.611816 489.694580,520.217651 483.909363,500.783356 
	C483.464935,499.290375 482.812744,497.859222 481.835724,495.292206 
	C480.920685,498.082520 480.380219,499.730652 479.706848,501.766907 
z"/>
<path fill="#295188" opacity="1.000000" stroke="none" 
	d="
M755.789856,564.566650 
	C749.022217,565.699158 745.243530,563.122192 741.685303,557.624390 
	C728.939514,537.931213 715.526917,518.669556 702.361694,499.247986 
	C701.476501,497.942108 700.552002,496.662872 698.817749,494.190948 
	C698.817749,518.370789 698.817749,541.081665 698.817749,564.177612 
	C694.814026,564.177612 691.251221,564.177612 687.329529,564.177612 
	C687.329529,535.974548 687.329529,507.752594 687.329529,478.811218 
	C691.754089,478.811218 696.346985,478.543457 700.873596,478.973358 
	C702.242615,479.103363 703.712219,480.974487 704.654724,482.372437 
	C718.142029,502.377167 731.544189,522.439392 744.976624,542.481140 
	C746.065857,544.106323 747.226562,545.683594 749.349731,547.107849 
	C749.349731,524.534180 749.349731,501.960541 749.349731,479.089386 
	C753.635864,479.089386 757.204407,479.089386 761.075684,479.089386 
	C761.075684,507.371857 761.075684,535.594177 761.075684,564.291199 
	C759.429871,564.385010 757.835938,564.475891 755.789856,564.566650 
z"/>
<path fill="#295188" opacity="1.000000" stroke="none" 
	d="
M1030.246460,530.142090 
	C1037.448364,513.838196 1044.633057,497.939819 1051.425171,481.875458 
	C1052.894409,478.400513 1055.205200,478.668610 1057.793335,478.825104 
	C1060.366089,478.980591 1063.219971,477.668243 1064.849243,481.539490 
	C1076.382690,508.943817 1088.136719,536.255310 1100.216553,564.523376 
	C1095.856934,564.523376 1091.970337,564.732971 1088.135010,564.381897 
	C1087.126221,564.289551 1085.939453,562.610046 1085.411621,561.406311 
	C1083.210938,556.387024 1081.419800,551.180298 1079.047485,546.249573 
	C1078.385254,544.873169 1076.263062,543.378296 1074.781372,543.347595 
	C1063.297974,543.109070 1051.805298,543.107178 1040.322266,543.352356 
	C1038.863525,543.383423 1036.802368,544.954834 1036.125488,546.349182 
	C1033.954346,550.822021 1032.079712,555.473450 1030.524658,560.198730 
	C1029.413208,563.576538 1027.679565,565.055298 1024.055908,564.627197 
	C1021.442505,564.318359 1018.763245,564.566956 1015.172546,564.566956 
	C1020.311340,552.826172 1025.199951,541.657166 1030.246460,530.142090 
M1044.898438,524.400574 
	C1043.809448,527.104065 1042.720581,529.807556 1041.529907,532.763550 
	C1052.456909,532.763550 1062.687500,532.763550 1073.659668,532.763550 
	C1068.317993,519.641357 1063.164429,506.980927 1057.692139,493.537720 
	C1053.262329,504.162781 1049.196899,513.913757 1044.898438,524.400574 
z"/>
<path fill="#2B5289" opacity="1.000000" stroke="none" 
	d="
M875.507202,564.648438 
	C871.562927,562.471558 867.987976,560.454041 864.028137,558.219360 
	C863.813782,559.913208 863.562134,561.901062 863.267822,564.226440 
	C859.980164,564.226440 856.722839,564.226440 853.047424,564.226440 
	C853.047424,533.967041 853.047424,503.615723 853.047424,473.021484 
	C856.360291,473.021484 859.625916,473.021484 863.530518,473.021484 
	C863.530518,486.607941 863.530518,500.115723 863.530518,514.832092 
	C870.273682,507.936005 877.455078,505.230713 885.819580,505.572845 
	C892.398987,505.841888 898.184143,508.037659 903.109802,512.382751 
	C913.473206,521.524902 916.141296,538.653809 909.237671,551.387085 
	C902.826477,563.212097 889.236023,568.679382 875.507202,564.648438 
M900.009583,527.929260 
	C898.002563,522.705994 894.608276,518.811096 889.189331,517.021118 
	C874.438904,512.148804 862.581665,522.153931 863.826660,538.374390 
	C864.587036,548.281250 871.222961,554.715454 881.702515,555.706848 
	C890.664490,556.554688 898.714050,550.852478 900.502686,541.497498 
	C901.284363,537.408813 900.356445,532.993225 900.009583,527.929260 
z"/>
<path fill="#295188" opacity="1.000000" stroke="none" 
	d="
M610.069336,540.000000 
	C610.069397,517.523560 610.069397,495.547058 610.069397,473.178497 
	C613.655212,473.178497 617.037659,473.178497 620.953308,473.178497 
	C620.953308,486.761780 620.953308,500.443329 620.953308,514.542297 
	C635.334595,502.772217 651.820740,502.787231 662.490051,514.151306 
	C673.275391,525.638977 673.176331,545.932373 662.278564,557.493347 
	C651.742065,568.671021 635.188660,568.671021 621.258606,557.172852 
	C621.096741,559.656311 620.952820,561.865540 620.793152,564.315674 
	C617.379639,564.315674 614.104736,564.315674 610.069336,564.315674 
	C610.069336,556.316528 610.069336,548.408264 610.069336,540.000000 
M658.765686,538.112549 
	C658.210571,534.370117 658.280273,530.391479 656.973145,526.933289 
	C654.055359,519.213806 647.755615,515.993042 639.721558,515.879639 
	C632.154541,515.772827 626.454224,519.127136 623.318787,525.908264 
	C619.658386,533.824768 619.747253,541.918518 625.422852,548.910400 
	C630.473938,555.132935 637.524780,556.866455 645.227234,555.064880 
	C653.628052,553.099915 657.252563,546.878784 658.765686,538.112549 
z"/>
<path fill="#2B5289" opacity="1.000000" stroke="none" 
	d="
M592.920654,555.917480 
	C580.694031,568.288879 560.354370,569.438782 548.857300,558.662476 
	C536.952148,547.503662 535.912292,527.439941 546.834229,515.252625 
	C555.418030,505.674194 566.516785,503.572327 578.317383,506.852905 
	C590.691162,510.292908 595.377869,520.266907 596.792969,532.137024 
	C597.065979,534.426819 596.832153,536.777100 596.832153,539.855042 
	C589.233765,539.855042 581.646729,539.855042 574.059631,539.855042 
	C566.580750,539.855042 559.101929,539.855042 551.225708,539.855042 
	C551.291382,546.985901 555.062317,551.212402 560.736633,553.941833 
	C570.686584,558.727844 579.134949,556.176636 586.215027,547.800171 
	C588.527466,549.624268 590.688721,551.157166 592.606079,552.950806 
	C593.151489,553.461060 592.987427,554.729858 592.920654,555.917480 
M573.466125,514.830017 
	C561.454529,512.707886 551.782471,519.639709 551.361206,530.665222 
	C562.572083,530.665222 573.782959,530.665222 584.988525,530.665222 
	C584.954224,522.150574 582.041138,517.982727 573.466125,514.830017 
z"/>
<path fill="#2B5289" opacity="1.000000" stroke="none" 
	d="
M783.285767,518.346863 
	C797.188171,499.522064 827.506409,501.117981 836.954041,525.082703 
	C842.228699,538.462463 837.250854,553.094055 825.184509,560.901123 
	C812.791199,568.919739 797.159485,567.349243 786.721741,557.036804 
	C776.502930,546.940674 775.040588,531.581482 783.285767,518.346863 
M823.243713,548.631775 
	C823.979309,547.338135 824.851501,546.102478 825.428894,544.741699 
	C829.986511,534.000854 825.746338,521.308777 816.343079,517.393677 
	C807.177429,513.577515 796.936279,516.668335 792.331421,524.640198 
	C787.141479,533.625244 789.398193,546.413086 797.187622,552.158142 
	C805.039429,557.949158 815.784912,556.731140 823.243713,548.631775 
z"/>
<path fill="#2C5389" opacity="1.000000" stroke="none" 
	d="
M950.911621,505.516357 
	C956.081665,506.886230 961.110107,507.618195 965.480713,509.718750 
	C970.790649,512.270874 973.382019,517.533691 973.513306,523.261902 
	C973.824951,536.854553 973.613647,550.459167 973.613647,564.319092 
	C970.795105,564.319092 968.017456,564.319092 964.637695,564.319092 
	C964.369385,562.027222 964.093567,559.671021 963.709778,556.392273 
	C957.955017,563.469177 951.058472,566.509949 942.532593,566.025391 
	C932.524475,565.456726 925.010620,559.574341 924.051453,551.116943 
	C922.971497,541.594299 928.304260,533.829346 938.216064,531.073975 
	C942.190918,529.968994 946.343811,529.323853 950.459106,528.956848 
	C954.417664,528.603882 958.432251,528.880554 962.777527,528.880554 
	C964.017029,523.765381 962.682617,519.574585 958.570679,517.009888 
	C949.558655,511.388947 941.406311,514.696838 933.483521,520.875671 
	C931.357300,518.514648 929.399719,516.340820 927.204468,513.903198 
	C933.751282,507.519867 941.910950,505.959534 950.911621,505.516357 
M947.447632,557.119080 
	C958.922913,556.372009 964.867371,548.722168 962.584412,535.874878 
	C955.231079,537.154602 947.658020,537.801208 940.527344,539.929626 
	C935.001404,541.579163 933.331726,547.461914 935.876099,552.144714 
	C938.189941,556.403137 942.357117,556.855957 947.447632,557.119080 
z"/>
<path fill="#2C5389" opacity="1.000000" stroke="none" 
	d="
M1111.250000,504.999939 
	C1111.249512,496.187683 1111.249512,487.875397 1111.249512,479.169983 
	C1115.181763,479.169983 1118.892334,479.169983 1122.814941,479.169983 
	C1122.814941,507.415344 1122.814941,535.665527 1122.814941,564.247925 
	C1119.163330,564.247925 1115.586792,564.247925 1111.250610,564.247925 
	C1111.250610,544.616760 1111.250610,525.058350 1111.250000,504.999939 
z"/>
<path fill="#0778E4" opacity="1.000000" stroke="none" 
	d="
M291.016205,599.141541 
	C296.668854,599.140625 301.834351,599.313660 306.973785,599.023743 
	C308.360626,598.945496 309.668213,597.462830 311.012177,596.624756 
	C309.603149,595.755615 308.211639,594.168762 306.782257,594.133850 
	C297.486969,593.907043 288.183441,594.017395 278.513123,594.017395 
	C278.513123,590.521790 278.513123,587.283447 278.513123,583.590515 
	C293.563904,583.590515 308.728088,583.590515 324.243652,583.590515 
	C324.243652,586.848938 324.243652,590.095764 324.243652,593.771179 
	C322.323151,593.877686 320.337463,593.737122 318.495941,594.186890 
	C317.445618,594.443420 316.630463,595.662781 315.709412,596.448608 
	C316.707581,597.341187 317.579926,598.706238 318.734009,599.013672 
	C320.391693,599.455322 322.254669,599.126404 324.265259,599.126404 
	C324.500305,603.636658 322.784271,606.261719 318.860168,606.348145 
	C307.393066,606.600525 295.914978,606.683411 284.448792,606.454102 
	C280.879761,606.382751 278.376099,604.134644 278.202057,599.141541 
	C282.426270,599.141541 286.472778,599.141541 291.016205,599.141541 
z"/>
<path fill="#127DE5" opacity="1.000000" stroke="none" 
	d="
M351.318329,441.359955 
	C346.685974,441.989075 346.760468,439.046814 348.475616,437.027802 
	C352.446747,432.353394 356.965698,428.124268 361.481506,423.951569 
	C362.277496,423.216003 364.135254,423.629395 365.502686,423.512177 
	C365.387115,424.982544 365.847687,426.992065 365.060181,427.833618 
	C360.748810,432.441010 356.131165,436.761810 351.318329,441.359955 
z"/>
<path fill="#1A81E6" opacity="1.000000" stroke="none" 
	d="
M377.006927,485.047974 
	C379.986816,485.044678 382.550293,484.696838 384.952911,485.168396 
	C386.371490,485.446869 387.535400,487.022675 388.813843,488.015076 
	C387.613953,488.915680 386.453278,490.524902 385.207336,490.593842 
	C379.899017,490.887543 374.556427,490.892151 369.247925,490.604309 
	C368.031128,490.538300 366.899963,488.893127 365.729370,487.974731 
	C366.997742,486.999939 368.149445,485.476654 369.561279,485.176331 
	C371.790039,484.702148 374.193420,485.048767 377.006927,485.047974 
z"/>
<path fill="#0778E4" opacity="1.000000" stroke="none" 
	d="
M300.951538,410.076172 
	C300.964783,407.432159 300.720093,405.221344 301.104431,403.125885 
	C301.285736,402.137360 302.658081,400.707825 303.519440,400.687378 
	C304.397308,400.666534 306.055634,402.101318 306.088440,402.948517 
	C306.320160,408.929321 306.326172,414.926666 306.113312,420.908417 
	C306.081757,421.794861 304.518646,422.626862 303.664124,423.484039 
	C302.767548,422.503845 301.208649,421.592926 301.097565,420.530609 
	C300.753204,417.236877 300.959198,413.885590 300.951538,410.076172 
z"/>
<path fill="#1A81E6" opacity="1.000000" stroke="none" 
	d="
M223.098083,485.047974 
	C226.730270,485.040771 229.920898,484.750580 233.021835,485.152405 
	C234.450668,485.337585 235.704010,486.876923 237.036926,487.802185 
	C235.764023,488.777344 234.539627,490.508453 233.209625,490.593781 
	C228.084885,490.922638 222.913101,490.925049 217.789505,490.585968 
	C216.478073,490.499176 215.279114,488.712738 214.028473,487.707153 
	C215.232330,486.817749 216.321747,485.536469 217.670319,485.142670 
	C219.199005,484.696259 220.959885,485.044952 223.098083,485.047974 
z"/>
<path fill="#127DE5" opacity="1.000000" stroke="none" 
	d="
M253.275177,435.918060 
	C253.792343,437.762268 254.043854,439.351440 254.295380,440.940613 
	C252.724655,440.605682 250.699463,440.776917 249.663376,439.846558 
	C245.595963,436.194366 241.702728,432.317474 238.069397,428.235138 
	C237.204346,427.263214 237.595428,425.173401 237.408737,423.597717 
	C238.860260,423.861633 240.756409,423.634033 241.685989,424.474915 
	C245.617157,428.031128 249.260757,431.905182 253.275177,435.918060 
z"/>
<path fill="#0778E4" opacity="1.000000" stroke="none" 
	d="
M298.412048,484.396210 
	C295.425751,481.587677 294.875732,478.364777 297.466431,475.900360 
	C298.884369,474.551514 302.536957,473.779327 303.970978,474.678406 
	C305.678833,475.749146 307.204102,479.099701 306.830444,481.091431 
	C306.030212,485.357300 302.517853,485.941559 298.412048,484.396210 
z"/>
<path fill="#0778E4" opacity="1.000000" stroke="none" 
	d="
M333.673706,510.676849 
	C330.413391,513.002747 327.045288,513.217285 325.358704,509.945618 
	C324.363800,508.015778 324.708832,504.209595 326.063538,502.629761 
	C327.144104,501.369629 331.174103,501.288452 332.987976,502.303864 
	C336.216797,504.111328 335.957214,507.421448 333.673706,510.676849 
z"/>
<path fill="#0778E4" opacity="1.000000" stroke="none" 
	d="
M279.089722,506.884766 
	C278.556580,511.290741 275.795685,513.046814 272.435730,511.912750 
	C270.518250,511.265625 268.148651,508.265442 268.228973,506.422699 
	C268.310486,504.553497 270.890350,501.722595 272.850159,501.240570 
	C276.356506,500.378265 278.770203,502.636047 279.089722,506.884766 
z"/>
<path fill="#0778E4" opacity="1.000000" stroke="none" 
	d="
M304.039368,615.596375 
	C302.966797,616.992737 301.901306,617.956726 300.835815,618.920715 
	C300.126984,617.761047 299.027557,616.672607 298.800171,615.425232 
	C298.453278,613.522095 298.709290,611.509033 298.709290,609.323914 
	C300.538391,609.323914 301.971649,609.323914 304.046478,609.323914 
	C304.046478,611.297302 304.046478,613.230652 304.039368,615.596375 
z"/>
<path fill="#ECEDF2" opacity="1.000000" stroke="none" 
	d="
M1045.014893,524.032715 
	C1049.196899,513.913757 1053.262329,504.162781 1057.692139,493.537720 
	C1063.164429,506.980927 1068.317993,519.641357 1073.659668,532.763550 
	C1062.687500,532.763550 1052.456909,532.763550 1041.529907,532.763550 
	C1042.720581,529.807556 1043.809448,527.104065 1045.014893,524.032715 
z"/>
<path fill="#EDEEF3" opacity="1.000000" stroke="none" 
	d="
M900.107239,528.327698 
	C900.356445,532.993225 901.284363,537.408813 900.502686,541.497498 
	C898.714050,550.852478 890.664490,556.554688 881.702515,555.706848 
	C871.222961,554.715454 864.587036,548.281250 863.826660,538.374390 
	C862.581665,522.153931 874.438904,512.148804 889.189331,517.021118 
	C894.608276,518.811096 898.002563,522.705994 900.107239,528.327698 
z"/>
<path fill="#ECEDF2" opacity="1.000000" stroke="none" 
	d="
M658.721069,538.531860 
	C657.252563,546.878784 653.628052,553.099915 645.227234,555.064880 
	C637.524780,556.866455 630.473938,555.132935 625.422852,548.910400 
	C619.747253,541.918518 619.658386,533.824768 623.318787,525.908264 
	C626.454224,519.127136 632.154541,515.772827 639.721558,515.879639 
	C647.755615,515.993042 654.055359,519.213806 656.973145,526.933289 
	C658.280273,530.391479 658.210571,534.370117 658.721069,538.531860 
z"/>
<path fill="#ECEDF2" opacity="1.000000" stroke="none" 
	d="
M573.857788,514.900391 
	C582.041138,517.982727 584.954224,522.150574 584.988525,530.665222 
	C573.782959,530.665222 562.572083,530.665222 551.359619,530.669922 
	C551.782471,519.639709 561.454529,512.707886 573.857788,514.900391 
z"/>
<path fill="#EDEEF3" opacity="1.000000" stroke="none" 
	d="
M823.041260,548.941162 
	C815.784912,556.731140 805.039429,557.949158 797.187622,552.158142 
	C789.398193,546.413086 787.141479,533.625244 792.331421,524.640198 
	C796.936279,516.668335 807.177429,513.577515 816.343079,517.393677 
	C825.746338,521.308777 829.986511,534.000854 825.428894,544.741699 
	C824.851501,546.102478 823.979309,547.338135 823.041260,548.941162 
z"/>
<path fill="#ECEDF2" opacity="1.000000" stroke="none" 
	d="
M947.012512,557.110840 
	C942.357117,556.855957 938.189941,556.403137 935.876099,552.144714 
	C933.331726,547.461914 935.001404,541.579163 940.527344,539.929626 
	C947.658020,537.801208 955.231079,537.154602 962.584412,535.874878 
	C964.867371,548.722168 958.922913,556.372009 947.012512,557.110840 
z"/>
</svg>